<svg xmlns="http://www.w3.org/2000/svg" width="490" height="509"><path fill="#2AD7D4" d="M277 43h19l15 4 12 6 10 9 6 10 2 6v12l-4 11-11 12-7 5-15 6-18 2-13-1-15-5-10-6-8-7-6-10-2-6V77l4-9 4-6 7-7 10-6 11-4Zm-141 80h10l12 3 8 5 5 6 1 2v11l-39 117-5 8-8 6-8 3H98l-29-4-24-3-11-4-6-5-4-8v-9l16-44 12-33 6-12 7-9 7-7 13-9 15-7 11-3 15-3Zm110 30h23l19 4 13 5 11 6 10 8 13 13 7 8 9 10 7 8v2h35v-23l4-7 7-6 8-3 5-1h8l10 3 6 4 5 5 3 8v258l-3 8-7 7-12 5-16-1-10-5-7-8-1-3-1-184-54-1-16-5-10-6-10-9-7-8-3-3v-2h-2l-1 5-12 36-6 19v2l19 14 18 14 19 14 10 11 4 11v86l-4 8-5 5-5 4-8 4-10 2-16-1-12-5-9-8-4-8-1-8v-67l-13-10-16-12-16-12-20-15-16-12-8-7-6-7-7-14-1-4v-15l17-54 9-26 6-10 8-9 10-7 15-7Zm-98 171 4 2 11 9 16 12 16 12 13 10-3 11-19 55-8 21-4 6-8 7-12 5-7 1h-11l-12-4-9-6-6-7-3-8 1-10 13-37 7-20 13-36 7-21Z"/></svg>