<svg xmlns="http://www.w3.org/2000/svg" width="511" height="488"><path fill="#2AD8D5" d="M61 10h407l7 7 9 13 6 12 4 13 3 18v310l-3 14-5 14-9 15h-2l-2 4-5 5-2 3-1 37-1 1-87 1-1-1v-14H149v14H60l-1-40-4-2-1-3h-2l-2-5h-2l-9-15-5-14-3-14V73l2-15 6-18 8-15 9-11Zm30 75v142l1 1h344l1-1V86l-1-1Zm34 232-11 4-9 6-7 8-5 10-2 10v12l5 13 6 8 9 8 9 4 10 2h8l12-3 10-6 8-8 5-9 3-10v-13l-4-13-7-11h-2v-2l-11-7-11-3Zm261 0-12 4-11 8-2 5h-2l-5 11-2 8v13l3 10 6 10 8 8 12 6 9 2h8l10-2 12-6 9-9 6-11 2-7v-15l-5-14-7-9-7-6-8-4-7-2Z"/></svg>