<svg xmlns="http://www.w3.org/2000/svg" width="566" height="441"><path fill="#2AD8D5" d="M85 8h8l8 4 4 6 1 12v106l2 4 2 1h8l3-3 2-15 6-57 5-47 4-6 3-3 7-2 9 1 7 5 3 7 11 105 2 13 7 3 7-2 1-120 3-6 5-4 6-2h7l8 5 3 4 7 26 23 91 2 13-1 15-4 13-6 11-7 10-3 3h-2v2l-13 10-16 8-14 4-11 1v192l-4 9-6 7-12 6-4 1h-12l-11-4-10-9-4-8-1-5V225l-21-5-14-6-12-8-11-10-9-12-6-13-3-12v-18l16-64 15-59 7-8Zm351 0h11l11 4 4 2v2l4 2 5 8 2 7-1 386-5 9-7 6-9 4-4 1h-13l-10-4-10-9-4-9V305h-39l-15-4-14-7-10-9-6-7-6-12-2-7V139l4-24 7-21 8-16 7-11 7-9 3-4h2l2-4 12-11 16-11 14-8 14-6 18-5Z"/></svg>