<svg xmlns="http://www.w3.org/2000/svg" width="532" height="469"><path fill="#29D8D5" d="M51 4h409l10 4 8 7 5 7 2 8v9l-3 8-7 9-10 6-9 1 1 340 11 3 8 6 5 6 4 10v8l-3 10-6 8-8 6-6 2-164 1-1-1-1-51-3-10-6-10-7-6-12-6-4-1h-17l-11 4-9 6-6 7-4 8-2 8-1 50-1 1H49l-9-4-8-7-5-8-1-4v-12l3-8 9-10 10-5 6-2V68l1-5-9-1-10-6-6-7-3-6-1-4V28l4-9 7-9 9-5Zm71 88-6 4-2 4v38l4 6 6 3h35l6-3 4-8v-33l-3-7-5-4Zm114 0-6 4-2 5v37l4 6 6 3h35l7-4 3-6v-36l-3-6-5-3Zm114 0-5 3-3 6v35l3 7 7 4h35l6-3 4-6v-38l-4-6-4-2Zm-225 85-7 3-3 3-1 3v38l4 6 4 2h39l6-5 2-6v-33l-4-8-6-3Zm114 0-7 3-4 6v37l3 6 6 3h38l6-5 2-4v-36l-3-6-4-3-3-1Zm114 0-7 3-3 4-1 3v35l3 6 5 4h39l5-3 3-6v-37l-4-6-7-3Zm-108 86-16 3-14 6-12 8-10 9-8 10-7 12-5 14v10l4 6 5 4 7 2h132l9-3 6-5 2-5v-8l-4-12-8-15-11-13-14-11-17-8-11-3-7-1Z"/></svg>