<svg xmlns="http://www.w3.org/2000/svg" width="545" height="458"><path fill="#2AD8D5" d="M253 8h23l14 1 25 4 23 6 22 8 21 10 20 12 19 14 5 4v2l4 2 8 7 4 5 5 5 4 4v2l3 1 13 17 10 15 12 22 10 25 7 23 5 28 1 10v139l-4 15-8 16-8 10-8 8-14 9-11 5-20 4h-9l-12-3-11-6-9-8-7-11-3-8-1-8V264l4-13 7-11 7-7 10-6 16-4 15 1 16 4-5-25-7-21-9-20-11-18-9-12-12-14-11-11-14-11-10-7-15-9-19-9-18-6-21-5-25-3h-22l-25 3-24 6-17 6-19 9-16 10-16 12-13 12-7 7-11 14-10 14-13 25-7 19-5 19-3 15 16-4 15-1 13 3 10 5 10 9 6 9 4 10 1 5v136l-4 13-7 11-10 9-13 6-18 2-16-3-13-5-12-7-10-9-8-9-8-14-4-11-2-10V237l3-25 6-25 7-21 8-18 11-21 8-12 9-12 9-11 23-23h2v-2l13-10 13-9 13-8 19-10 23-9 25-7 22-4Z"/></svg>