<svg xmlns="http://www.w3.org/2000/svg" width="551" height="453"><path fill="#2AD8D5" d="m274 4 9 1 10 5 12 11 9 11 9 15 10 21 7 19 8 28 5 25v4l-142 1-12-1 2-13 5-23 9-29 10-24 10-18 12-16 8-8 9-6Zm58 8 9 2 15 5 18 8 18 10 15 10 13 11 10 9 12 12 9 11 8 11 11 18 8 16 3 6-1 4h-95l-6-1-8-38-7-25-9-25-12-25-8-12-3-4Zm-115 0h3l-1 4-10 16-12 25-9 25-7 25-7 35-3 3H80l-9-1 3-9 10-20 10-15 6-9h2l2-5 6-7 5-5 11-11h2v-2h2v-2l14-11 16-11 18-10 11-5 21-8Zm167 157 106 1 4 14 3 21v42l-4 25-3 10H383v-13l1-16v-54l-1-15v-14Zm-322 1h107l1 4-1 14-1 23v30l1 26 1 14-1 1H62l-4-16-2-12-1-12v-32l3-24Zm134 0h161l2 17 1 18v42l-2 29-2 6H196l-1-1-2-21v-67l2-22ZM72 307h99l3 2 7 36 9 31 8 21 12 25 9 14 1 4-11-3-22-8-25-13-16-11-14-11-13-12-12-13-13-17-11-18-8-16-4-8Zm129 0h146l6 1-2 14-5 22-8 26-8 21-11 21-10 14-9 10-11 8-8 3-6 1-10-3-9-6-8-7-8-10-10-16-8-16-6-15-8-24-6-25-3-15v-3Zm180 0h99l1 4-12 24-10 16-10 13-12 14-13 13-11 9-15 11-15 9-16 8-20 8-13 4h-2l1-4 7-10 12-23 10-26 7-23 6-25 4-21Z"/></svg>